<svg version="1.1" xmlns="http://www.w3.org/2000/svg" xmlns:xlink="http://www.w3.org/1999/xlink" width="900" height="750" style="width: 900px; height: 750px;"><defs><clipPath id="sXIdlNvzWJUI"><path fill="none" stroke="none" d=" M 77 68 L 870 68 L 870 664 L 77 664 L 77 68 Z"/></clipPath><clipPath id="XnmvSAvoifqq"><path fill="none" stroke="none" d=" M 77 68 L 870 68 L 870 664 L 77 664 L 77 68 Z"/></clipPath></defs><g><g transform="scale(1,1) translate(0.5,0.5)"><rect fill="#FFFFFF" stroke="none" x="0" y="0" width="900" height="750"/><rect fill="#ffffff" stroke="none" x="0" y="0" width="900" height="750"/><rect fill="#FFFFFF" stroke="none" x="77" y="68" width="793" height="596"/><rect fill="#ffffff" stroke="none" x="77" y="68" width="793" height="596"/><g><rect fill="none" stroke="#e5e5e5" x="77" y="68" width="793" height="596" stroke-miterlimit="10"/></g><g clip-path="url(#sXIdlNvzWJUI)"><g><g><path fill="none" stroke="#e5e5e5" paint-order="fill stroke markers" d=" M 102 664 L 102 68" stroke-miterlimit="10"/><path fill="none" stroke="#e5e5e5" paint-order="fill stroke markers" d=" M 151 664 L 151 68" stroke-miterlimit="10"/><path fill="none" stroke="#e5e5e5" paint-order="fill stroke markers" d=" M 201 664 L 201 68" stroke-miterlimit="10"/><path fill="none" stroke="#e5e5e5" paint-order="fill stroke markers" d=" M 250 664 L 250 68" stroke-miterlimit="10"/><path fill="none" stroke="#e5e5e5" paint-order="fill stroke markers" d=" M 300 664 L 300 68" stroke-miterlimit="10"/><path fill="none" stroke="#e5e5e5" paint-order="fill stroke markers" d=" M 350 664 L 350 68" stroke-miterlimit="10"/><path fill="none" stroke="#e5e5e5" paint-order="fill stroke markers" d=" M 399 664 L 399 68" stroke-miterlimit="10"/><path fill="none" stroke="#e5e5e5" paint-order="fill stroke markers" d=" M 449 664 L 449 68" stroke-miterlimit="10"/><path fill="none" stroke="#e5e5e5" paint-order="fill stroke markers" d=" M 498 664 L 498 68" stroke-miterlimit="10"/><path fill="none" stroke="#e5e5e5" paint-order="fill stroke markers" d=" M 548 664 L 548 68" stroke-miterlimit="10"/><path fill="none" stroke="#e5e5e5" paint-order="fill stroke markers" d=" M 597 664 L 597 68" stroke-miterlimit="10"/><path fill="none" stroke="#e5e5e5" paint-order="fill stroke markers" d=" M 647 664 L 647 68" stroke-miterlimit="10"/><path fill="none" stroke="#e5e5e5" paint-order="fill stroke markers" d=" M 697 664 L 697 68" stroke-miterlimit="10"/><path fill="none" stroke="#e5e5e5" paint-order="fill stroke markers" d=" M 746 664 L 746 68" stroke-miterlimit="10"/><path fill="none" stroke="#e5e5e5" paint-order="fill stroke markers" d=" M 796 664 L 796 68" stroke-miterlimit="10"/><path fill="none" stroke="#e5e5e5" paint-order="fill stroke markers" d=" M 845 664 L 845 68" stroke-miterlimit="10"/></g><g><path fill="none" stroke="#e5e5e5" paint-order="fill stroke markers" d=" M 77 637 L 870 637" stroke-miterlimit="10"/><path fill="none" stroke="#e5e5e5" paint-order="fill stroke markers" d=" M 77 513 L 870 513" stroke-miterlimit="10"/><path fill="none" stroke="#e5e5e5" paint-order="fill stroke markers" d=" M 77 390 L 870 390" stroke-miterlimit="10"/><path fill="none" stroke="#e5e5e5" paint-order="fill stroke markers" d=" M 77 267 L 870 267" stroke-miterlimit="10"/><path fill="none" stroke="#e5e5e5" paint-order="fill stroke markers" d=" M 77 143 L 870 143" stroke-miterlimit="10"/></g><g><path fill="none" stroke="none"/><rect fill="#1f77b4" stroke="none" x="79.478125" y="224.06585214330096" width="44.60624999999999" height="412.8432387657899"/><path fill="none" stroke="#1f77b4" paint-order="fill stroke markers" d=" M 79.478125 224.06585214330096 L 124.084375 224.06585214330096 L 124.084375 636.9090909090909 L 79.478125 636.9090909090909 L 79.478125 224.06585214330096 Z" stroke-miterlimit="10" stroke-width="2"/><rect fill="#1f77b4" stroke="none" x="129.040625" y="95.09090909090924" width="44.60624999999999" height="541.8181818181816"/><path fill="none" stroke="#1f77b4" paint-order="fill stroke markers" d=" M 129.040625 95.09090909090924 L 173.646875 95.09090909090924 L 173.646875 636.9090909090909 L 129.040625 636.9090909090909 L 129.040625 95.09090909090924 Z" stroke-miterlimit="10" stroke-width="2"/><rect fill="#1f77b4" stroke="none" x="178.60312499999998" y="244.43031683578386" width="44.606250000000045" height="392.478774073307"/><path fill="none" stroke="#1f77b4" paint-order="fill stroke markers" d=" M 178.60312499999998 244.43031683578386 L 223.20937500000002 244.43031683578386 L 223.20937500000002 636.9090909090909 L 178.60312499999998 636.9090909090909 L 178.60312499999998 244.43031683578386 Z" stroke-miterlimit="10" stroke-width="2"/><rect fill="#1f77b4" stroke="none" x="228.16562499999998" y="172.22903292607174" width="44.606250000000045" height="464.68005798301914"/><path fill="none" stroke="#1f77b4" paint-order="fill stroke markers" d=" M 228.16562499999998 172.22903292607174 L 272.771875 172.22903292607174 L 272.771875 636.9090909090909 L 228.16562499999998 636.9090909090909 L 228.16562499999998 172.22903292607174 Z" stroke-miterlimit="10" stroke-width="2"/><rect fill="#1f77b4" stroke="none" x="277.728125" y="338.2302754193415" width="44.606250000000045" height="298.67881548974935"/><path fill="none" stroke="#1f77b4" paint-order="fill stroke markers" d=" M 277.728125 338.2302754193415 L 322.334375 338.2302754193415 L 322.334375 636.9090909090909 L 277.728125 636.9090909090909 L 277.728125 338.2302754193415 Z" stroke-miterlimit="10" stroke-width="2"/><rect fill="#1f77b4" stroke="none" x="327.290625" y="293.7987160902879" width="44.606250000000045" height="343.110374818803"/><path fill="none" stroke="#1f77b4" paint-order="fill stroke markers" d=" M 327.290625 293.7987160902879 L 371.896875 293.7987160902879 L 371.896875 636.9090909090909 L 327.290625 636.9090909090909 L 327.290625 293.7987160902879 Z" stroke-miterlimit="10" stroke-width="2"/><rect fill="#1f77b4" stroke="none" x="376.853125" y="377.1078898322634" width="44.606250000000045" height="259.80120107682745"/><path fill="none" stroke="#1f77b4" paint-order="fill stroke markers" d=" M 376.853125 377.1078898322634 L 421.459375 377.1078898322634 L 421.459375 636.9090909090909 L 376.853125 636.9090909090909 L 376.853125 377.1078898322634 Z" stroke-miterlimit="10" stroke-width="2"/><rect fill="#1f77b4" stroke="none" x="426.415625" y="405.49471940360326" width="44.606250000000045" height="231.41437150548762"/><path fill="none" stroke="#1f77b4" paint-order="fill stroke markers" d=" M 426.415625 405.49471940360326 L 471.021875 405.49471940360326 L 471.021875 636.9090909090909 L 426.415625 636.9090909090909 L 426.415625 405.49471940360326 Z" stroke-miterlimit="10" stroke-width="2"/><rect fill="#1f77b4" stroke="none" x="475.9781250000001" y="437.5841789190309" width="44.60624999999982" height="199.32491199006"/><path fill="none" stroke="#1f77b4" paint-order="fill stroke markers" d=" M 475.9781250000001 437.5841789190309 L 520.5843749999999 437.5841789190309 L 520.5843749999999 636.9090909090909 L 475.9781250000001 636.9090909090909 L 475.9781250000001 437.5841789190309 Z" stroke-miterlimit="10" stroke-width="2"/><rect fill="#1f77b4" stroke="none" x="525.5406250000001" y="426.47628908676745" width="44.60624999999982" height="210.43280182232343"/><path fill="none" stroke="#1f77b4" paint-order="fill stroke markers" d=" M 525.5406250000001 426.47628908676745 L 570.1468749999999 426.47628908676745 L 570.1468749999999 636.9090909090909 L 525.5406250000001 636.9090909090909 L 525.5406250000001 426.47628908676745 Z" stroke-miterlimit="10" stroke-width="2"/><rect fill="#1f77b4" stroke="none" x="575.1031250000001" y="436.9670739283496" width="44.60624999999982" height="199.9420169807413"/><path fill="none" stroke="#1f77b4" paint-order="fill stroke markers" d=" M 575.1031250000001 436.9670739283496 L 619.7093749999999 436.9670739283496 L 619.7093749999999 636.9090909090909 L 575.1031250000001 636.9090909090909 L 575.1031250000001 436.9670739283496 Z" stroke-miterlimit="10" stroke-width="2"/><rect fill="#1f77b4" stroke="none" x="624.6656250000001" y="480.16442327604057" width="44.60624999999982" height="156.7446676330503"/><path fill="none" stroke="#1f77b4" paint-order="fill stroke markers" d=" M 624.6656250000001 480.16442327604057 L 669.2718749999999 480.16442327604057 L 669.2718749999999 636.9090909090909 L 624.6656250000001 636.9090909090909 L 624.6656250000001 480.16442327604057 Z" stroke-miterlimit="10" stroke-width="2"/><rect fill="#1f77b4" stroke="none" x="674.2281250000001" y="496.20915303375443" width="44.60624999999982" height="140.69993787533645"/><path fill="none" stroke="#1f77b4" paint-order="fill stroke markers" d=" M 674.2281250000001 496.20915303375443 L 718.8343749999999 496.20915303375443 L 718.8343749999999 636.9090909090909 L 674.2281250000001 636.9090909090909 L 674.2281250000001 496.20915303375443 Z" stroke-miterlimit="10" stroke-width="2"/><rect fill="#1f77b4" stroke="none" x="723.7906250000001" y="385.74735970180166" width="44.60624999999982" height="251.16173120728922"/><path fill="none" stroke="#1f77b4" paint-order="fill stroke markers" d=" M 723.7906250000001 385.74735970180166 L 768.3968749999999 385.74735970180166 L 768.3968749999999 636.9090909090909 L 723.7906250000001 636.9090909090909 L 723.7906250000001 385.74735970180166 Z" stroke-miterlimit="10" stroke-width="2"/><rect fill="#1f77b4" stroke="none" x="773.3531250000001" y="319.1000207082212" width="44.60624999999982" height="317.80907020086966"/><path fill="none" stroke="#1f77b4" paint-order="fill stroke markers" d=" M 773.3531250000001 319.1000207082212 L 817.9593749999999 319.1000207082212 L 817.9593749999999 636.9090909090909 L 773.3531250000001 636.9090909090909 L 773.3531250000001 319.1000207082212 Z" stroke-miterlimit="10" stroke-width="2"/><rect fill="#1f77b4" stroke="none" x="822.9156250000001" y="486.3354731828536" width="44.60624999999982" height="150.57361772623727"/><path fill="none" stroke="#1f77b4" paint-order="fill stroke markers" d=" M 822.9156250000001 486.3354731828536 L 867.5218749999999 486.3354731828536 L 867.5218749999999 636.9090909090909 L 822.9156250000001 636.9090909090909 L 822.9156250000001 486.3354731828536 Z" stroke-miterlimit="10" stroke-width="2"/></g></g></g><g clip-path="url(#XnmvSAvoifqq)"><g/></g><g><g fill="#444444"><path fill="none" stroke="black" paint-order="fill stroke markers" d=" M 77 664 L 870 664" stroke-miterlimit="10"/><path fill="none" stroke="black" paint-order="fill stroke markers" d=" M 102 670 L 102 662" stroke-miterlimit="10"/><path fill="none" stroke="black" paint-order="fill stroke markers" d=" M 151 670 L 151 662" stroke-miterlimit="10"/><path fill="none" stroke="black" paint-order="fill stroke markers" d=" M 201 670 L 201 662" stroke-miterlimit="10"/><path fill="none" stroke="black" paint-order="fill stroke markers" d=" M 250 670 L 250 662" stroke-miterlimit="10"/><path fill="none" stroke="black" paint-order="fill stroke markers" d=" M 300 670 L 300 662" stroke-miterlimit="10"/><path fill="none" stroke="black" paint-order="fill stroke markers" d=" M 350 670 L 350 662" stroke-miterlimit="10"/><path fill="none" stroke="black" paint-order="fill stroke markers" d=" M 399 670 L 399 662" stroke-miterlimit="10"/><path fill="none" stroke="black" paint-order="fill stroke markers" d=" M 449 670 L 449 662" stroke-miterlimit="10"/><path fill="none" stroke="black" paint-order="fill stroke markers" d=" M 498 670 L 498 662" stroke-miterlimit="10"/><path fill="none" stroke="black" paint-order="fill stroke markers" d=" M 548 670 L 548 662" stroke-miterlimit="10"/><path fill="none" stroke="black" paint-order="fill stroke markers" d=" M 597 670 L 597 662" stroke-miterlimit="10"/><path fill="none" stroke="black" paint-order="fill stroke markers" d=" M 647 670 L 647 662" stroke-miterlimit="10"/><path fill="none" stroke="black" paint-order="fill stroke markers" d=" M 697 670 L 697 662" stroke-miterlimit="10"/><path fill="none" stroke="black" paint-order="fill stroke markers" d=" M 746 670 L 746 662" stroke-miterlimit="10"/><path fill="none" stroke="black" paint-order="fill stroke markers" d=" M 796 670 L 796 662" stroke-miterlimit="10"/><path fill="" stroke="black" paint-order="fill stroke markers" d=" M 845 670 L 845 662" stroke-miterlimit="10"/><g transform="translate(102,675) rotate(-36,0,0)"><text fill="" stroke="none" font-family="helvetica" font-size="12pt" font-style="normal" font-weight="normal" text-decoration="normal" x="0" y="0" text-anchor="end" dominant-baseline="central">2016-12</text><g transform="rotate(36,0,0) translate(-102,-675) translate(151,675) rotate(-36,0,0)"><text fill="" stroke="none" font-family="helvetica" font-size="12pt" font-style="normal" font-weight="normal" text-decoration="normal" x="0" y="0" text-anchor="end" dominant-baseline="central">2017-01</text><g transform="rotate(36,0,0) translate(-151,-675) translate(201,675) rotate(-36,0,0)"><text fill="" stroke="none" font-family="helvetica" font-size="12pt" font-style="normal" font-weight="normal" text-decoration="normal" x="0" y="0" text-anchor="end" dominant-baseline="central">2017-02</text><g transform="rotate(36,0,0) translate(-201,-675) translate(250,675) rotate(-36,0,0)"><text fill="" stroke="none" font-family="helvetica" font-size="12pt" font-style="normal" font-weight="normal" text-decoration="normal" x="0" y="0" text-anchor="end" dominant-baseline="central">2017-03</text><g transform="rotate(36,0,0) translate(-250,-675) translate(300,675) rotate(-36,0,0)"><text fill="" stroke="none" font-family="helvetica" font-size="12pt" font-style="normal" font-weight="normal" text-decoration="normal" x="0" y="0" text-anchor="end" dominant-baseline="central">2017-04</text><g transform="rotate(36,0,0) translate(-300,-675) translate(350,675) rotate(-36,0,0)"><text fill="" stroke="none" font-family="helvetica" font-size="12pt" font-style="normal" font-weight="normal" text-decoration="normal" x="0" y="0" text-anchor="end" dominant-baseline="central">2017-05</text><g transform="rotate(36,0,0) translate(-350,-675) translate(399,675) rotate(-36,0,0)"><text fill="" stroke="none" font-family="helvetica" font-size="12pt" font-style="normal" font-weight="normal" text-decoration="normal" x="0" y="0" text-anchor="end" dominant-baseline="central">2017-06</text><g transform="rotate(36,0,0) translate(-399,-675) translate(449,675) rotate(-36,0,0)"><text fill="" stroke="none" font-family="helvetica" font-size="12pt" font-style="normal" font-weight="normal" text-decoration="normal" x="0" y="0" text-anchor="end" dominant-baseline="central">2017-07</text><g transform="rotate(36,0,0) translate(-449,-675) translate(498,675) rotate(-36,0,0)"><text fill="" stroke="none" font-family="helvetica" font-size="12pt" font-style="normal" font-weight="normal" text-decoration="normal" x="0" y="0" text-anchor="end" dominant-baseline="central">2017-08</text><g transform="rotate(36,0,0) translate(-498,-675) translate(548,675) rotate(-36,0,0)"><text fill="" stroke="none" font-family="helvetica" font-size="12pt" font-style="normal" font-weight="normal" text-decoration="normal" x="0" y="0" text-anchor="end" dominant-baseline="central">2017-09</text><g transform="rotate(36,0,0) translate(-548,-675) translate(597,675) rotate(-36,0,0)"><text fill="" stroke="none" font-family="helvetica" font-size="12pt" font-style="normal" font-weight="normal" text-decoration="normal" x="0" y="0" text-anchor="end" dominant-baseline="central">2017-10</text><g transform="rotate(36,0,0) translate(-597,-675) translate(647,675) rotate(-36,0,0)"><text fill="" stroke="none" font-family="helvetica" font-size="12pt" font-style="normal" font-weight="normal" text-decoration="normal" x="0" y="0" text-anchor="end" dominant-baseline="central">2017-11</text><g transform="rotate(36,0,0) translate(-647,-675) translate(697,675) rotate(-36,0,0)"><text fill="" stroke="none" font-family="helvetica" font-size="12pt" font-style="normal" font-weight="normal" text-decoration="normal" x="0" y="0" text-anchor="end" dominant-baseline="central">2017-12</text><g transform="rotate(36,0,0) translate(-697,-675) translate(746,675) rotate(-36,0,0)"><text fill="" stroke="none" font-family="helvetica" font-size="12pt" font-style="normal" font-weight="normal" text-decoration="normal" x="0" y="0" text-anchor="end" dominant-baseline="central">2018-01</text><g transform="rotate(36,0,0) translate(-746,-675) translate(796,675) rotate(-36,0,0)"><text fill="" stroke="none" font-family="helvetica" font-size="12pt" font-style="normal" font-weight="normal" text-decoration="normal" x="0" y="0" text-anchor="end" dominant-baseline="central">2018-02</text><g transform="rotate(36,0,0) translate(-796,-675) translate(845,675) rotate(-36,0,0)"><text fill="" stroke="none" font-family="helvetica" font-size="12pt" font-style="normal" font-weight="normal" text-decoration="normal" x="0" y="0" text-anchor="end" dominant-baseline="central">2018-03</text><g transform="rotate(36,0,0) translate(-845,-675) translate(474,726) rotate(0,0,0)"><text fill="" stroke="none" font-family="helvetica" font-size="16pt" font-style="italic" font-weight="normal" text-decoration="normal" x="0" y="0" text-anchor="middle" dominant-baseline="hanging">month</text><g transform="rotate(0,0,0) translate(-474,-726)"/></g></g></g></g></g></g></g></g></g></g></g></g></g></g></g></g></g></g><g fill="#444444"><path fill="none" stroke="black" paint-order="fill stroke markers" d=" M 77 664 L 77 68" stroke-miterlimit="10"/><path fill="none" stroke="black" paint-order="fill stroke markers" d=" M 71 637 L 79 637" stroke-miterlimit="10"/><path fill="none" stroke="black" paint-order="fill stroke markers" d=" M 71 513 L 79 513" stroke-miterlimit="10"/><path fill="none" stroke="black" paint-order="fill stroke markers" d=" M 71 390 L 79 390" stroke-miterlimit="10"/><path fill="none" stroke="black" paint-order="fill stroke markers" d=" M 71 267 L 79 267" stroke-miterlimit="10"/><path fill="none" stroke="black" paint-order="fill stroke markers" d=" M 71 143 L 79 143" stroke-miterlimit="10"/><path fill="none" stroke="black" paint-order="fill stroke markers" d=" M 73 662 L 77 662" stroke-miterlimit="10"/><path fill="none" stroke="black" paint-order="fill stroke markers" d=" M 73 637 L 77 637" stroke-miterlimit="10"/><path fill="none" stroke="black" paint-order="fill stroke markers" d=" M 73 612 L 77 612" stroke-miterlimit="10"/><path fill="none" stroke="black" paint-order="fill stroke markers" d=" M 73 588 L 77 588" stroke-miterlimit="10"/><path fill="none" stroke="black" paint-order="fill stroke markers" d=" M 73 563 L 77 563" stroke-miterlimit="10"/><path fill="none" stroke="black" paint-order="fill stroke markers" d=" M 73 538 L 77 538" stroke-miterlimit="10"/><path fill="none" stroke="black" paint-order="fill stroke markers" d=" M 73 513 L 77 513" stroke-miterlimit="10"/><path fill="none" stroke="black" paint-order="fill stroke markers" d=" M 73 489 L 77 489" stroke-miterlimit="10"/><path fill="none" stroke="black" paint-order="fill stroke markers" d=" M 73 464 L 77 464" stroke-miterlimit="10"/><path fill="none" stroke="black" paint-order="fill stroke markers" d=" M 73 439 L 77 439" stroke-miterlimit="10"/><path fill="none" stroke="black" paint-order="fill stroke markers" d=" M 73 415 L 77 415" stroke-miterlimit="10"/><path fill="none" stroke="black" paint-order="fill stroke markers" d=" M 73 390 L 77 390" stroke-miterlimit="10"/><path fill="none" stroke="black" paint-order="fill stroke markers" d=" M 73 365 L 77 365" stroke-miterlimit="10"/><path fill="none" stroke="black" paint-order="fill stroke markers" d=" M 73 341 L 77 341" stroke-miterlimit="10"/><path fill="none" stroke="black" paint-order="fill stroke markers" d=" M 73 316 L 77 316" stroke-miterlimit="10"/><path fill="none" stroke="black" paint-order="fill stroke markers" d=" M 73 291 L 77 291" stroke-miterlimit="10"/><path fill="none" stroke="black" paint-order="fill stroke markers" d=" M 73 267 L 77 267" stroke-miterlimit="10"/><path fill="none" stroke="black" paint-order="fill stroke markers" d=" M 73 242 L 77 242" stroke-miterlimit="10"/><path fill="none" stroke="black" paint-order="fill stroke markers" d=" M 73 217 L 77 217" stroke-miterlimit="10"/><path fill="none" stroke="black" paint-order="fill stroke markers" d=" M 73 193 L 77 193" stroke-miterlimit="10"/><path fill="none" stroke="black" paint-order="fill stroke markers" d=" M 73 168 L 77 168" stroke-miterlimit="10"/><path fill="none" stroke="black" paint-order="fill stroke markers" d=" M 73 143 L 77 143" stroke-miterlimit="10"/><path fill="none" stroke="black" paint-order="fill stroke markers" d=" M 73 119 L 77 119" stroke-miterlimit="10"/><path fill="none" stroke="black" paint-order="fill stroke markers" d=" M 73 94 L 77 94" stroke-miterlimit="10"/><path fill="" stroke="black" paint-order="fill stroke markers" d=" M 73 69 L 77 69" stroke-miterlimit="10"/><g transform="translate(66,637) rotate(0,0,0)"><text fill="" stroke="none" font-family="helvetica" font-size="14pt" font-style="normal" font-weight="normal" text-decoration="normal" x="0" y="0" text-anchor="end" dominant-baseline="central">0</text><g transform="rotate(0,0,0) translate(-66,-637) translate(66,513) rotate(0,0,0)"><text fill="" stroke="none" font-family="helvetica" font-size="14pt" font-style="normal" font-weight="normal" text-decoration="normal" x="0" y="0" text-anchor="end" dominant-baseline="central">200</text><g transform="rotate(0,0,0) translate(-66,-513) translate(66,390) rotate(0,0,0)"><text fill="" stroke="none" font-family="helvetica" font-size="14pt" font-style="normal" font-weight="normal" text-decoration="normal" x="0" y="0" text-anchor="end" dominant-baseline="central">400</text><g transform="rotate(0,0,0) translate(-66,-390) translate(66,267) rotate(0,0,0)"><text fill="" stroke="none" font-family="helvetica" font-size="14pt" font-style="normal" font-weight="normal" text-decoration="normal" x="0" y="0" text-anchor="end" dominant-baseline="central">600</text><g transform="rotate(0,0,0) translate(-66,-267) translate(66,143) rotate(0,0,0)"><text fill="" stroke="none" font-family="helvetica" font-size="14pt" font-style="normal" font-weight="normal" text-decoration="normal" x="0" y="0" text-anchor="end" dominant-baseline="central">800</text><g transform="rotate(0,0,0) translate(-66,-143) translate(25,366) rotate(-90,0,0)"><text fill="" stroke="none" font-family="helvetica" font-size="16pt" font-style="italic" font-weight="normal" text-decoration="normal" x="0" y="0" text-anchor="middle" dominant-baseline="alphabetic">new users</text><g transform="rotate(90,0,0) translate(-25,-366)"/></g></g></g></g></g></g></g><g fill="#444444"><path fill="" stroke="none" d=""/><g transform="translate(77,63)"><path fill="none" stroke="none"/><text fill="" stroke="none" font-family="helvetica" font-size="30pt" font-style="normal" font-weight="bold" text-decoration="normal" x="0" y="0" text-anchor="start" dominant-baseline="text-after-edge">Number of new users each month</text></g></g></g></g></g></svg>